<svg width="1440" height="900" xmlns="http://www.w3.org/2000/svg">
 <defs>
  <clipPath id="clip0">
   <rect id="svg_1" fill="white" height="900" width="1440"/>
  </clipPath>
 </defs>
 <g>
  <title>background</title>
  <rect fill="none" id="canvas_background" height="902" width="1442" y="-1" x="-1"/>
 </g>
 <g>
  <title>Layer 1</title>
  <g id="svg_2" clip-path="url(#clip0)">
   <path id="svg_3" fill="#12b214" d="m1398.95,868.86c-13.62,-23.84 -48.44,-22.45 -60.13,2.39c-4.45,9.44 5.55,-11.81 0,0c-11.41,24.24 -42.34,31.7 -63.54,15.31c-19.24,-14.86 -24.75,-19.12 -41.26,-31.88c-26.89,-20.78 -66.25,-8.87 -77.1,23.33c-3.75,11.13 4.43,-13.15 0,0c-7.92,23.5 -38.98,28.43 -53.78,8.54c-11.06,-14.87 -9.34,-12.55 -20.43,-27.46c-16.55,-22.24 -50.43,-20.41 -64.49,3.49c-6.58,11.18 -6.52,11.08 -15.55,26.44c-7.12,12.1 -25,10.83 -30.35,-2.15c-6.14,-14.92 -4.06,-9.87 -8.33,-20.24c-10.25,-24.89 -43.17,-30.17 -60.69,-9.73c-7.34,8.57 7.66,-8.93 0,0c-19.14,22.33 -53.81,21.94 -72.44,-0.82c-11.64,-14.23 -0.679,-0.83 -9.779,-11.95c-23.21,-28.36 -67.711,-24.33 -85.461,7.73c-5.3,9.58 -2.86,5.17 -12.83,23.19c-6.11,11.04 -21.85,11.42 -28.49,0.68c-7.86,-12.7 -7.63,-12.33 -13.25,-21.42c-12.37,-20 -41.109,-20.96 -54.779,-1.83c-9.44,13.2 -12.711,17.78 -23.081,32.28c-9.39,13.14 -29.899,9.1 -33.599,-6.63c-3.1,-13.18 -0.35,-1.51 -2.81,-11.98c-4.59,-19.5 -30.621,-23.44 -40.781,-6.17c-6.88,11.7 -3.11,5.28 -10.9,18.54c-10.55,17.93 -36.47,17.93 -47.02,0c-7.8,-13.26 -0.39,-0.66 -6.36,-10.82c-14.26,-24.24 -49.58,-23.45 -62.74,1.41c-5.23,9.87 6.02,-11.38 0,0c-10.36,19.56 -38.84,18.12 -47.18,-2.38c-4.43,-10.9 2.32,5.68 -2.37,-5.83c-6.18,-15.21 -28.22,-13.55 -32.06,2.41c-2.66,11.03 0.47,-1.99 -2.48,10.28c-3.59,14.9 -23.94,16.98 -30.46,3.11c-6.07,-12.89 -0.37,-0.79 -5.38,-11.43c-9.57,-20.33 -38.73,-19.61 -47.28,1.17c-4.29,10.4 1.47,-3.58 -3.74,9.07c-7.03,17.09 -30.79,18.23 -39.43,1.9c-6.91,-13.03 -5.86,-11.06 -12.76,-24.09c-8.04,-15.18 -30.4,-13.08 -35.47,3.33c-4.76,15.4 -4.07,13.16 -8.52,27.56c-5.58,18.07 -30.28,20.25 -38.9395,3.43c-7.76,-15.08 -3.67,-7.13 -10.51,-20.41c-10.66,-20.72 -40.96,-18.58 -48.61,3.44c-8.38,24.13 -126.29,51.11 -159.8105,147.61c99.8705,0 700.25,3.03 1801.13,9.09c-182.54,-102.93 -274.59,-155.76 -276.16,-158.51z"/>
  </g>
 </g>
</svg>